# xmcd
#
# Track frame offsets: 
#        150
#        10894
#        22871
#        33947
#        43298
#        53721
#        65400
#        75061
#        85897
#        96732
#        108104
#        118508
#        129811
#        141039
#        154052
#        166767
#        180038
#        192715
#        204559
#        217535
#        230963
#        243993
#        257419
#        269853
#        281676
#        295402
#        308139
#        320340
#
# Disc length: 4445 seconds
#
# Revision: 0
# Processed by: cddbd v1.5.2PL0 Copyright (c) Steve Scherf et al.
# Submitted via: ExactAudioCopy v1.0b1
#
DISCID=7d115b1c
DTITLE=Adolph Hofner - Swing With The Music
DYEAR=2010
DGENRE=Western Swing
TTITLE0=The Tickle Toe Song
TTITLE1=Julida Polka
TTITLE2=Alamo Rag
TTITLE3=South Texas Swing
TTITLE4=Country Fair Polka
TTITLE5=Twilight Waltz
TTITLE6=South Of The Border In Laredo
TTITLE7=Happy Go Lucky Polka
TTITLE8=Someday Soon
TTITLE9=Night Time Down South
TTITLE10=Our Little Romance Is Through
TTITLE11=I'm Blue And Lonely
TTITLE12=Tickle Toe
TTITLE13=I Guess You Forgot
TTITLE14=Swing With The Music
TTITLE15=With You Still In My Heart
TTITLE16=Training Camp Shuffle
TTITLE17=Cerveny Satacheck (Red Handkerchief)
TTITLE18=Baruska (Barbara) Polka
TTITLE19=U Studenky Sedela (At The Spring)
TTITLE20=There's A Place Down In Dallas
TTITLE21=Dis Syme Odpustik Prahu (Farewell To Prague)
TTITLE22=Sveskova Alej (The Prune Song)
TTITLE23=Wabash Blues
TTITLE24=Westphalia Waltz
TTITLE25=Texas Is My Home
TTITLE26=The Blue Bonnet Polka
TTITLE27=Please Don't Take That Bottle From Me
EXTD=
EXTT0=
EXTT1=
EXTT2=
EXTT3=
EXTT4=
EXTT5=
EXTT6=
EXTT7=
EXTT8=
EXTT9=
EXTT10=
EXTT11=
EXTT12=
EXTT13=
EXTT14=
EXTT15=
EXTT16=
EXTT17=
EXTT18=
EXTT19=
EXTT20=
EXTT21=
EXTT22=
EXTT23=
EXTT24=
EXTT25=
EXTT26=
EXTT27=
PLAYORDER=
